<!DOCTYPE svg PUBLIC "-//W3C//DTD SVG 1.1//EN" "http://www.w3.org/Graphics/SVG/1.1/DTD/svg11.dtd">
<!-- Uploaded to: SVG Repo, www.svgrepo.com, Transformed by: SVG Repo Mixer Tools -->
<svg fill="#0d42ff" version="1.1" id="Capa_1" xmlns="http://www.w3.org/2000/svg" xmlns:xlink="http://www.w3.org/1999/xlink" width="800px" height="800px" viewBox="0 0 425.846 425.846" xml:space="preserve">
<g id="SVGRepo_bgCarrier" stroke-width="0"/>
<g id="SVGRepo_tracerCarrier" stroke-linecap="round" stroke-linejoin="round"/>
<g id="SVGRepo_iconCarrier"> <g> <g> <path d="M38.537,310.299h24.856c2.162,17.235,16.879,30.624,34.692,30.624c19.295,0,34.994-15.7,34.994-34.996 c0-19.295-15.699-34.995-34.994-34.995c-6.479,0-12.807,1.783-18.299,5.158c-2.056,1.266-2.7,3.959-1.436,6.013 c1.264,2.059,3.955,2.7,6.013,1.435c4.115-2.527,8.858-3.864,13.721-3.864c14.475,0,26.251,11.776,26.251,26.253 c0,14.475-11.777,26.253-26.251,26.253c-14.477,0-26.253-11.776-26.253-26.253c0-2.415-1.957-4.372-4.372-4.372 c0,0-0.002,0-0.003,0c-0.002,0-0.003,0-0.003,0H38.537c-2.894,0-5.067-0.848-5.962-2.325c-0.896-1.476-0.642-3.796,0.699-6.365 L177.45,16.654c3.3-6.323,11.737-9.565,18.421-7.08l160.355,59.6c7.1,2.64,13.098,11.268,13.098,18.842v55.453 c-14.924,1.913-26.506,14.67-26.506,30.107c0,16.755,13.629,30.385,30.383,30.385s30.387-13.632,30.387-30.387 c0-5.623-1.551-11.117-4.482-15.887c-1.268-2.055-3.957-2.7-6.014-1.434c-2.057,1.264-2.699,3.957-1.434,6.013 c2.086,3.393,3.188,7.302,3.188,11.308c0,11.936-9.711,21.644-21.645,21.644c-11.932,0-21.641-9.708-21.641-21.642 c0-11.932,9.709-21.641,21.643-21.641c5.164,0,4.865-5.331,4.865-6.073V88.016c0-11.243-8.258-23.12-18.797-27.036L198.917,1.378 c-10.787-4.009-23.894,1.03-29.218,11.231L25.522,288.822c-2.788,5.341-2.943,10.785-0.427,14.94 C27.614,307.917,32.513,310.299,38.537,310.299z"/> <path d="M373.695,301.554H155.929c-2.415,0-4.372,1.959-4.372,4.372c0,2.414,1.957,4.371,4.372,4.371h217.766 c7.008,0,12.789,5.7,12.895,12.705l1.199,81.527c0.051,3.345-1.215,6.499-3.561,8.879c-2.348,2.384-5.482,3.695-8.83,3.695H43.643 c-6.971,0-12.642-5.671-12.642-12.641V378.94c0-6.968,5.671-12.641,12.642-12.641h267.105c2.414,0,4.371-1.956,4.371-4.371 s-1.957-4.371-4.371-4.371H43.643c-11.792,0-21.385,9.591-21.385,21.383v25.522c0,11.79,9.592,21.383,21.385,21.383h331.756 c5.707,0,11.053-2.238,15.057-6.3c4.002-4.062,6.16-9.44,6.076-15.145l-1.199-81.527 C395.158,311.119,385.453,301.554,373.695,301.554z"/> </g> </g> </g>
</svg>