<!DOCTYPE svg PUBLIC "-//W3C//DTD SVG 1.1//EN" "http://www.w3.org/Graphics/SVG/1.1/DTD/svg11.dtd">
<!-- Uploaded to: SVG Repo, www.svgrepo.com, Transformed by: SVG Repo Mixer Tools -->
<svg fill="#0d42ff" version="1.1" id="Capa_1" xmlns="http://www.w3.org/2000/svg" xmlns:xlink="http://www.w3.org/1999/xlink" width="800px" height="800px" viewBox="0 0 443.553 443.553" xml:space="preserve">
<g id="SVGRepo_bgCarrier" stroke-width="0"/>
<g id="SVGRepo_tracerCarrier" stroke-linecap="round" stroke-linejoin="round"/>
<g id="SVGRepo_iconCarrier"> <g> <g> <path d="M141.458,313.76c-1.829-1.575-4.588-1.371-6.166,0.457c-1.575,1.828-1.371,4.588,0.457,6.165 c24.657,21.25,61.004,36.092,88.386,36.092c32.435,0,65.341-16.406,90.278-45.015c24.111-27.659,37.941-62.835,37.941-96.509 c0-2.415-1.957-4.372-4.372-4.372s-4.371,1.957-4.371,4.372c0,61.404-52.189,132.783-119.477,132.783 C199.07,347.731,164.298,333.445,141.458,313.76z"/> <path d="M147.304,193.871c6.347-0.086,13.541-0.186,21.646-0.42c55.438-1.608,67.958-26.657,76.243-43.231 c4.282-8.566,10.916-11.803,14.939-11.803c2.415,0,4.371-1.957,4.371-4.371c0-2.415-1.956-4.372-4.371-4.372 c-9.808,0-18.482,8.082-22.76,16.638c-7.793,15.59-18.465,36.944-68.676,38.4c-8.038,0.234-15.195,0.331-21.511,0.418 c-39.984,0.545-52.051,0.71-52.489,36.465c-0.159,12.99,2.675,26.286,8.425,39.518c0.715,1.647,2.324,2.63,4.013,2.63 c0.581,0,1.171-0.115,1.74-0.364c2.215-0.961,3.229-3.537,2.268-5.751c-5.254-12.093-7.846-24.181-7.701-35.928 C103.771,194.465,107.059,194.42,147.304,193.871z"/> <path d="M402.008,237.423c-2.971-52.91-14.686-126.667-53.628-177.576C318.002,20.135,275.716,0,222.698,0 c-49.76,0-90.629,16.181-121.469,48.098C62.316,88.366,40.544,154.962,42.987,226.242c1.755,51.176,81.67,74.954,156.626,75.744 c1.986,8.75,9.811,15.31,19.154,15.31h19.959c10.836,0,19.652-8.818,19.652-19.658c0-2.414-1.957-4.371-4.371-4.371 c-2.415,0-4.372,1.957-4.372,4.371c0,6.019-4.895,10.915-10.909,10.915h-19.959c-6.017,0-10.913-4.896-10.913-10.915 c0-6.017,4.896-10.912,10.913-10.912h19.959c2.415,0,4.371-1.957,4.371-4.372c0-2.414-1.956-4.371-4.371-4.371h-19.959 c-9.325,0-17.14,6.534-19.142,15.264c-73.017-0.787-146.411-23.868-147.901-67.301c-2.364-68.96,18.491-133.173,55.789-171.771 c29.129-30.145,67.883-45.43,115.183-45.43c50.153,0,90.101,18.981,118.739,56.416c37.592,49.144,48.942,121.069,51.843,172.754 c3.256,57.986-3.018,110.172-7.101,125.228c-5.859,21.606-25.237,39.867-56.042,52.807 c-28.958,12.163-66.682,18.861-106.224,18.861c-90.338,0-170.29-35.676-174.589-77.903c-0.245-2.401-2.383-4.149-4.793-3.906 c-2.402,0.246-4.151,2.39-3.906,4.792c4.815,47.291,87.037,85.761,183.287,85.761c74.425,0,156.072-24.156,170.704-78.122 C398.402,351.475,405.514,299.871,402.008,237.423z"/> </g> </g> </g>
</svg>